<?xml version="1.0" encoding="utf-8"?>
<!-- Generator: Adobe Illustrator 24.0.0, SVG Export Plug-In . SVG Version: 6.00 Build 0)  -->
<svg version="1.1" id="Layer_1" xmlns="http://www.w3.org/2000/svg" xmlns:xlink="http://www.w3.org/1999/xlink" x="0px" y="0px"
	 viewBox="0 0 94.16 88.62" style="enable-background:new 0 0 94.16 88.62;" xml:space="preserve">
<style type="text/css">
	.st0{fill:#826550;}
</style>
<g>
	<g>
		<path class="st0" d="M87.19,22.42c-0.57,1.73-1.13,3.48-1.68,5.22c2.97,5.84,4.65,12.44,4.65,19.44
			c0,14.24-6.95,26.88-17.63,34.73c1.16,0.71,2.22,1.58,3.14,2.67c11.24-8.6,18.49-22.15,18.49-37.4
			C94.16,38.04,91.61,29.6,87.19,22.42z"/>
		<path class="st0" d="M9.52,70.34c0.45,0,0.9,0.01,1.34,0.02C6.53,63.64,4,55.65,4,47.08C4,23.33,23.33,4,47.08,4
			c6.78,0,13.2,1.58,18.91,4.38c0.72-1.16,1.53-2.25,2.44-3.26C62.02,1.85,54.77,0,47.08,0C21.08,0,0,21.08,0,47.08
			c0,8.52,2.27,16.51,6.23,23.4C7.36,70.37,8.48,70.34,9.52,70.34z"/>
	</g>
</g>
<path class="st0" d="M53.45,82.04c0.44-6.14-0.87-14.02,0.66-19.07c4.53-0.08,9.56,0.35,13.15-0.66
	c8.17-14.84,12.03-34.01,18.42-50.64c0-0.88,0-1.75,0-2.63c-0.67-3.05-3.75-3.7-6.58-4.6c-0.22,0-0.44,0-0.66,0
	c-10.6,3.43-11.96,16.1-14.47,27.62C48.18,27.92,31.68,32,31.09,47.19c-4.53,0.08-7.98,1.22-9.86,3.95
	c-0.57,6.71,1.57,10.71,6.58,11.84c-1.24,5.34-3.64,9.51-7.23,12.49c-6.4,0.61-15.64-1.6-19.07,1.98c0,0.88,0,1.75,0,2.63
	c3.15,3.86,12.85,1.18,19.07,1.97c6.59-3.93,8.46-12.59,11.84-19.73c4.67,0.37,10.86-0.78,14.47,0.66c0,6.58,0,13.15,0,19.73
	c-7.83,0.5-15.45,1.21-19.07,5.92c14.91,0,29.81,0,44.72,0C69.27,83.33,60.05,83.99,53.45,82.04z M37.67,47.19
	c0.68-11.7,15.37-11.69,25.65-8.55c0.1,4.72-0.52,10.16,1.31,13.15C57.59,50.94,47.56,47.39,37.67,47.19z"/>
</svg>
