<?xml version="1.0" encoding="utf-8"?>
<!-- Generator: Adobe Illustrator 24.0.0, SVG Export Plug-In . SVG Version: 6.00 Build 0)  -->
<svg version="1.1" id="Layer_1" xmlns="http://www.w3.org/2000/svg" xmlns:xlink="http://www.w3.org/1999/xlink" x="0px" y="0px"
	 viewBox="0 0 94.94 94.16" style="enable-background:new 0 0 94.94 94.16;" xml:space="preserve">
<style type="text/css">
	.st0{fill:#826550;}
</style>
<g>
	<g>
		<path class="st0" d="M90.28,28.39c-2.1-4.84-4.99-9.26-8.51-13.1c-0.65,1.26-1.31,2.52-1.98,3.78c2.58,3.01,4.75,6.37,6.42,10.01
			C87.56,28.84,88.92,28.62,90.28,28.39z"/>
	</g>
	<g>
		<path class="st0" d="M90.01,43.56c0.09,1.16,0.16,2.33,0.16,3.52c0,23.79-19.29,43.08-43.08,43.08c-0.79,0-1.57-0.02-2.34-0.07
			c0.13,0.57,0.23,1.18,0.22,1.84c-0.01,0.76-0.16,1.48-0.4,2.15c0.84,0.04,1.68,0.07,2.53,0.07c25.96,0,47.08-21.12,47.08-47.08
			c0-2.09-0.15-4.14-0.42-6.16C92.56,41.88,91.31,42.75,90.01,43.56z"/>
	</g>
	<g>
		<path class="st0" d="M4,47.08C4,23.29,23.29,4,47.08,4c7.86,0,15.22,2.12,21.57,5.79c1.08-0.86,2.21-1.74,3.36-2.62
			C64.78,2.63,56.23,0,47.08,0C21.12,0,0,21.12,0,47.08c0,19.81,12.3,36.78,29.66,43.72c-0.4-1.5-0.56-3.07-0.57-4.58
			C14.28,79.41,4,64.45,4,47.08z"/>
	</g>
	<g>
		<path class="st0" d="M38.77,84.91c7.74-2.72,16.31-9.66,14.54-19.83c-0.9-5.14-4.48-5-7.27-9.25c14.44-12,24.21-28.66,33.04-46.26
			c-0.66,0-1.32,0-1.98,0C69.65,15.23,55.19,26.55,48.68,36c-2.6,3.78-4.59,9.31-7.27,13.88c-4.54,7.75-15.12,21.23-6.61,31.06
			c-1.38,4.62-1.2,12.39,3.96,12.56C42.04,91.77,37.38,88.89,38.77,84.91z M47.08,46.08c1.43,0,2.58,1.16,2.58,2.58
			c0,1.43-1.16,2.58-2.58,2.58c-1.43,0-2.58-1.16-2.58-2.58C44.5,47.24,45.66,46.08,47.08,46.08z M36.79,74.99
			c-1.86-9,7.01-16.95,11.9-9.25C48.94,73.16,42.5,81.51,36.79,74.99z"/>
	</g>
	<g>
		<path class="st0" d="M55.95,51.2c13.96-5.2,30.58-7.75,38.99-18.5c-9.41,1.38-18.12,3.47-27.76,4.63
			C65.05,43.56,60.16,47.04,55.95,51.2z"/>
	</g>
	<g>
		<path class="st0" d="M12.33,39.97c-4.22,12.25,8.42,15.99,21.81,13.88c3.78-4.81,5.85-9.96,1.98-15.86
			C31.23,30.52,15.22,31.61,12.33,39.97z M17.62,47.24C12.5,36.4,30.51,36.17,32.16,41.95C34.34,49.58,23.06,49.98,17.62,47.24z"/>
	</g>
</g>
</svg>
