<?xml version="1.0" encoding="utf-8"?>
<!-- Generator: Adobe Illustrator 24.0.0, SVG Export Plug-In . SVG Version: 6.00 Build 0)  -->
<svg version="1.1" id="Layer_1" xmlns="http://www.w3.org/2000/svg" xmlns:xlink="http://www.w3.org/1999/xlink" x="0px" y="0px"
	 viewBox="0 0 94.16 91.99" style="enable-background:new 0 0 94.16 91.99;" xml:space="preserve">
<style type="text/css">
	.st0{fill:#826550;}
</style>
<path class="st0" d="M47.08,8.17c5.03,0,9.11,4.08,9.11,9.11c0,5.03-4.08,9.11-9.11,9.11c-5.03,0-9.11-4.08-9.11-9.11
	C37.98,12.25,42.05,8.17,47.08,8.17z"/>
<path class="st0" d="M67.46,26.38H47.08H26.71c-1.55,0-2.82,1.27-2.82,2.82v4.47c0,1.55,1.27,2.82,2.82,2.82h0.83v45.39h-0.83
	c-1.55,0-2.82,1.27-2.82,2.82v4.47c0,1.55,1.27,2.82,2.82,2.82h40.75c1.55,0,2.82-1.27,2.82-2.82V84.7c0-1.55-1.27-2.82-2.82-2.82
	h-0.83V36.49h0.83c1.55,0,2.82-1.27,2.82-2.82V29.2C70.28,27.65,69.01,26.38,67.46,26.38z M33.66,36.49h13.2l-13.2,13.2V36.49z
	 M60.5,81.88H47.03L60.5,68.41V81.88z M60.5,53.17L33.66,80.01V64.93L60.5,38.09V53.17z"/>
<path class="st0" d="M47.08,0C21.08,0,0,21.08,0,47.08C0,62.51,7.42,76.2,18.89,84.79V84.7c0-1.5,0.44-2.9,1.18-4.1
	C10.28,72.7,4,60.61,4,47.08C4,23.33,23.33,4,47.08,4c23.75,0,43.08,19.33,43.08,43.08c0,13.53-6.28,25.62-16.06,33.52
	c0.74,1.19,1.18,2.59,1.18,4.1v0.09c11.47-8.59,18.89-22.28,18.89-37.71C94.16,21.08,73.08,0,47.08,0z"/>
</svg>
